<?xml version="1.0" encoding="utf-8"?>
<!-- Generator: Adobe Illustrator 26.2.1, SVG Export Plug-In . SVG Version: 6.00 Build 0)  -->
<svg version="1.1" id="Capa_1" xmlns="http://www.w3.org/2000/svg" xmlns:xlink="http://www.w3.org/1999/xlink" x="0px" y="0px"
	 viewBox="0 0 50 47.63" style="enable-background:new 0 0 50 47.63;" xml:space="preserve">
<style type="text/css">
	.st0{fill:none;stroke:#0AAFF1;stroke-width:15;stroke-miterlimit:10;}
	.st1{fill:#0AAFF1;}
	.st2{fill:#FFFFFF;}
	.st3{fill:#FFFFFF;stroke:#E0E5EE;stroke-miterlimit:10;}
	.st4{fill:#606060;}
	.st5{fill:none;stroke:#0084F6;stroke-width:11;stroke-miterlimit:10;}
	.st6{fill:#00B346;}
	.st7{fill:#00A3C8;}
	.st8{fill:none;stroke:#00A3C8;stroke-miterlimit:10;}
	.st9{fill:none;stroke:#FFFFFF;stroke-width:4;stroke-miterlimit:10;}
	.st10{fill:#606060;stroke:#606060;stroke-width:5;stroke-miterlimit:10;}
	.st11{fill:none;stroke:#FFFFFF;stroke-width:10;stroke-miterlimit:10;}
	.st12{fill:#606060;stroke:#FFFFFF;stroke-width:10;stroke-miterlimit:10;}
	.st13{fill:#E70027;}
	.st14{fill:#FFFFFC;}
	.st15{fill:#FFFFFF;stroke:#606060;stroke-width:10;stroke-miterlimit:10;}
	.st16{fill:none;stroke:#000000;stroke-width:10;stroke-miterlimit:10;}
	.st17{fill:#F2F5FA;}
	.st18{fill:#FF8A5C;}
	.st19{fill:#F8F8F8;stroke:#E0E5EE;stroke-miterlimit:10;}
	.st20{fill:none;stroke:#C6C6C6;stroke-miterlimit:10;}
	.st21{fill:#FF5470;}
	.st22{fill:none;stroke:#FFFFFF;stroke-width:7;stroke-miterlimit:10;}
	.st23{fill:#FF7523;}
	.st24{fill:none;stroke:#FFFFFF;stroke-miterlimit:10;}
	.st25{fill:none;stroke:#0AAFF1;stroke-linecap:round;stroke-linejoin:round;stroke-miterlimit:10;}
	.st26{fill:#0AAFF1;stroke:#FFFFFF;stroke-linecap:round;stroke-linejoin:round;stroke-miterlimit:10;}
	.st27{opacity:0.25;fill:#1E93D1;}
	.st28{fill:#1E93D1;}
	.st29{fill:#1C5392;}
	.st30{fill:none;stroke:#FFFFFF;stroke-linecap:round;stroke-linejoin:round;stroke-miterlimit:10;}
	.st31{fill:none;stroke:#0AAFF1;stroke-width:2;stroke-linecap:round;stroke-linejoin:round;stroke-miterlimit:10;}
	.st32{fill:none;stroke:#0AAFF1;stroke-width:4;stroke-linecap:round;stroke-linejoin:round;stroke-miterlimit:10;}
	.st33{fill:none;stroke:#FFFFFF;stroke-width:5;stroke-miterlimit:10;}
	.st34{fill:none;stroke:#FFFFFF;stroke-width:5;stroke-linecap:round;stroke-linejoin:round;stroke-miterlimit:10;}
	.st35{fill:none;stroke:#0AAFF1;stroke-width:24;stroke-miterlimit:10;}
	.st36{fill:none;stroke:#F2F5FA;stroke-width:10;stroke-miterlimit:10;}
	.st37{fill:#B8D637;}
	.st38{fill:#1D1D1B;}
	.st39{fill:#88898B;}
	.st40{fill:#9F9FA1;}
	.st41{fill:#D2D2D3;}
	.st42{fill:#F7F7F7;}
	.st43{fill:none;stroke:#FFFFFF;stroke-width:4;stroke-linecap:round;stroke-linejoin:round;stroke-miterlimit:10;}
	.st44{fill:#0AAFF1;stroke:#FFFFFF;stroke-width:1.5;stroke-linecap:round;stroke-linejoin:round;stroke-miterlimit:10;}
	.st45{fill:#FFFFFF;stroke:#0AAFF1;stroke-width:1.5;stroke-linecap:round;stroke-linejoin:round;stroke-miterlimit:10;}
	.st46{fill:#FFFFFF;stroke:#0AAFF1;stroke-width:3;stroke-linecap:round;stroke-linejoin:round;stroke-miterlimit:10;}
	.st47{fill:none;stroke:#0AAFF1;stroke-width:3;stroke-linecap:round;stroke-linejoin:round;stroke-miterlimit:10;}
	.st48{fill:none;}
	.st49{fill:#FFFFFF;stroke:#0AAFF1;stroke-width:1.5;stroke-miterlimit:10;}
	.st50{fill:#0AAFF1;stroke:#FFFFFF;stroke-width:1.5;stroke-miterlimit:10;}
	.st51{fill:none;stroke:#0AAFF1;stroke-width:2;stroke-miterlimit:10;}
	.st52{fill:#FFFFFF;stroke:#0AAFF1;stroke-width:2;stroke-miterlimit:10;}
	.st53{fill:#0AAFF1;stroke:#FFFFFF;stroke-miterlimit:10;}
	.st54{fill:none;stroke:#0AAFF1;stroke-miterlimit:10;}
	.st55{fill:#FFFFFF;stroke:#0AAFF1;stroke-miterlimit:10;}
	.st56{fill:none;stroke:#FFFFFF;stroke-width:2;stroke-miterlimit:10;}
	.st57{fill:#0AAFF1;stroke:#0AAFF1;stroke-width:3;stroke-miterlimit:10;}
	.st58{fill:none;stroke:#0AAFF1;stroke-width:4;stroke-miterlimit:10;}
	.st59{fill:none;stroke:#0AAFF1;stroke-width:2.25;stroke-miterlimit:10;}
	.st60{fill:#1FB900;}
	.st61{fill:none;stroke:#0AAFF1;stroke-width:13;stroke-linecap:round;stroke-linejoin:round;stroke-miterlimit:10;}
	.st62{fill:none;stroke:#FFFFFF;stroke-width:1.5;stroke-linecap:round;stroke-linejoin:round;stroke-miterlimit:10;}
	.st63{fill:#F7FAF9;}
	.st64{fill:none;stroke:#FFFFFF;stroke-width:0.5;stroke-miterlimit:10;}
	.st65{fill:#FFFFFF;stroke:#0AAFF1;stroke-width:3;stroke-miterlimit:10;}
	.st66{fill:#606060;stroke:#0AAFF1;stroke-width:15;stroke-miterlimit:10;}
	.st67{fill:none;stroke:#FFFFFF;stroke-width:1.5;stroke-miterlimit:10;}
	.st68{fill:none;stroke:#0AAFF1;stroke-width:8;stroke-miterlimit:10;}
	.st69{fill:#FFFFFF;stroke:#0AAFF1;stroke-width:0.75;stroke-linecap:round;stroke-linejoin:round;stroke-miterlimit:10;}
	.st70{fill:none;stroke:#0AAFF1;stroke-width:10;stroke-linecap:round;stroke-linejoin:round;stroke-miterlimit:10;}
	.st71{fill:none;stroke:#E70027;stroke-width:10;stroke-linecap:round;stroke-linejoin:round;stroke-miterlimit:10;}
	.st72{opacity:0.5;fill:none;stroke:#E70027;stroke-width:10;stroke-miterlimit:10;}
	.st73{opacity:0.5;fill:#E70027;}
	.st74{fill:none;stroke:#FFFFFC;stroke-width:10;stroke-linecap:round;stroke-linejoin:round;stroke-miterlimit:10;}
	.st75{fill:none;stroke:#606060;stroke-width:15;stroke-linecap:round;stroke-linejoin:round;stroke-miterlimit:10;}
	.st76{fill:#606060;stroke:#FFFFFF;stroke-width:7;stroke-miterlimit:10;}
	.st77{fill:#0AAFF1;stroke:#0AAFF1;stroke-miterlimit:10;}
	.st78{fill:none;stroke:#606060;stroke-width:10;stroke-linecap:round;stroke-linejoin:round;stroke-miterlimit:10;}
	.st79{fill:none;stroke:#FFFFFF;stroke-width:7;stroke-miterlimit:10;stroke-dasharray:5.8286,5.8286;}
	.st80{fill:none;stroke:#000000;stroke-width:19;stroke-miterlimit:10;}
	.st81{fill:#0AAFF1;stroke:#FFFFFF;stroke-width:2;stroke-miterlimit:10;}
	.st82{fill:#45B8FF;}
	.st83{opacity:0.5;fill:none;stroke:#45B8FF;stroke-width:1.75;stroke-miterlimit:10;}
	.st84{fill:none;stroke:#000000;stroke-width:1.75;stroke-miterlimit:10;}
	.st85{fill:none;stroke:#000000;stroke-width:1.5;stroke-miterlimit:10;}
	.st86{fill:none;stroke:#0AAFF1;stroke-width:1.75;stroke-miterlimit:10;}
	.st87{fill:none;stroke:#0AAFF1;stroke-width:1.75;stroke-linecap:round;stroke-linejoin:round;stroke-miterlimit:10;}
	.st88{fill:#FFFFFC;stroke:#FFFFFC;stroke-width:3;stroke-miterlimit:10;}
	.st89{fill:none;stroke:#000000;stroke-width:2;stroke-miterlimit:10;}
	.st90{fill:none;stroke:#FFFFFF;stroke-width:2;stroke-linecap:round;stroke-linejoin:round;stroke-miterlimit:10;}
	.st91{fill:#00A3C8;stroke:#606060;stroke-width:5;stroke-miterlimit:10;}
	.st92{fill:#0084F6;}
	.st93{fill:#CDCDC9;}
	.st94{fill-rule:evenodd;clip-rule:evenodd;fill:#FFFFFF;}
	.st95{fill:none;stroke:#0AAFF1;stroke-width:5;stroke-miterlimit:10;}
	.st96{fill:none;stroke:#0AAFF1;stroke-width:5;stroke-linecap:round;stroke-linejoin:round;stroke-miterlimit:10;}
	.st97{fill:#FFFFFF;stroke:#0AAFF1;stroke-width:5;stroke-linecap:round;stroke-linejoin:round;stroke-miterlimit:10;}
	.st98{fill:none;stroke:#0AAFF1;stroke-width:3;stroke-miterlimit:10;}
	.st99{fill:#0AAFF1;stroke:#0AAFF1;stroke-width:6;stroke-linecap:round;stroke-linejoin:round;stroke-miterlimit:10;}
	.st100{fill:#00D06F;}
	.st101{fill:#0AAFF1;stroke:#0AAFF1;stroke-width:6;stroke-miterlimit:10;}
	.st102{fill:none;stroke:#0AAFF1;stroke-width:2.5;stroke-linecap:round;stroke-linejoin:round;stroke-miterlimit:10;}
	.st103{fill:#FFFF00;stroke:#000000;stroke-width:3;stroke-miterlimit:10;}
	.st104{fill:#53FC00;}
	.st105{fill:#80A51B;}
	.st106{fill:none;stroke:#80A51B;stroke-width:0.999;}
	.st107{fill:none;stroke:#000000;stroke-width:0.75;stroke-miterlimit:10;}
	.st108{opacity:0.4;}
	.st109{fill:#0078D4;}
	.st110{fill:#45D7FA;}
	.st111{fill:#189AE1;}
	.st112{fill:none;stroke:#606060;stroke-width:13;stroke-linecap:round;stroke-linejoin:round;stroke-miterlimit:10;}
	.st113{fill:none;stroke:#FFFFFF;stroke-width:7;stroke-linecap:round;stroke-linejoin:round;stroke-miterlimit:10;}
	.st114{fill:#FFFFFF;stroke:#FFFFFF;stroke-miterlimit:10;}
	.st115{fill:#DADADA;}
	.st116{fill:none;stroke:#20FF77;stroke-miterlimit:10;}
</style>
<g>
	<path class="st2" d="M45.28,29.95c0.44-0.21,5.77-1.85,4.54-5.03c-0.86-2.24-2.51,0.41-3.67-0.45c-0.37-0.27-0.6-0.49,1.02-2.07
		c1.62-1.58,2.11-2.69,2.27-3.66c0.16-0.97,0.16-1.71-0.51-2.08c-0.66-0.37-1.54,0.61-1.81-0.41c-0.16-0.55,0.05-0.86,0.05-1.84
		c0-1.08-1.1-3.75-3.65-2.85c-1.65,0.58-0.78,3.44-1.2,3.98c-0.44,0.55-0.81-1.14-1.74-1.41c-1.07-0.31-1.82,0.69-1.81,1.61
		c0.01,0.92,0.61,2.63,0.81,3.3c0.11,0.53,0.4,1.96,0.22,2.38c-0.27,0.63-0.51,0.43-1.12-0.38c-0.54-0.71-0.26-0.41-1.21-1.56
		c-1.18-1.46-1.9,0.56-1.99,1.92c-0.08,1.35,0.95,6.07,0.93,6.69c-0.07,2.83-1.64-0.41-1.7-0.49c-1.03-1.57-3.01-0.84-2.39,0.85
		c1.13,3.07,2.15,5.73,1.08,8.36c-0.14,0.35-0.34,0.97-0.6,1.58c8.7-8.11,11.1-19.34,11.1-19.35c0.03-0.11,0.24-0.23,0.35-0.19
		c0.11,0.03,0.16,0.25,0.13,0.37c-0.01,0.02-2.85,16.69-18.02,25.21c-0.34,0.18-0.37-0.01-0.44-0.31c0.07-2.64,0.18-4.44,1.16-5.02
		c8.18-4.85,5.52-7.09,3.82-7.42c-1.69-0.33-2.66-3.1-0.33-4.31c4.12-2.31,6.22-10.58,1.11-8.77c-0.47,0.04-3.83,1.79-0.87-3.28
		c2.81-5.07,1.94-9.59-0.97-7.62c-0.77,0.52-2.92,2.8-2.49-0.5c0.77-5.02-0.47-6.81-1.94-7.14c0,0-0.15-0.03-0.28-0.04L25,0.02V0
		c-0.09-0.01-0.41,0.05-0.41,0.05c-1.47,0.33-2.71,2.12-1.95,7.14c0.43,3.31-1.73,1.02-2.49,0.5c-2.91-1.96-3.77,2.55-0.97,7.62
		c2.96,5.07-0.4,3.32-0.87,3.28c-5.11-1.81-3.01,6.46,1.11,8.77c2.34,1.21,1.37,3.98-0.33,4.31c-1.69,0.33-4.35,2.56,3.82,7.42
		c0.98,0.59,1.1,2.39,1.18,5.04c-0.07,0.29-0.12,0.48-0.45,0.29C8.48,35.91,5.64,19.24,5.63,19.22c-0.03-0.12,0.05-0.34,0.16-0.37
		C5.9,18.81,6.06,19,6.1,19.12C6.1,19.13,8.5,30.28,17.21,38.39c-0.26-0.61-0.46-1.22-0.6-1.58c-1.07-2.63-0.05-5.29,1.08-8.36
		c0.62-1.69-1.36-2.42-2.39-0.85c-0.05,0.08-1.62,3.32-1.69,0.49c-0.02-0.63,1.01-5.34,0.92-6.69c-0.08-1.35-0.8-3.38-1.99-1.92
		c-0.95,1.14-0.67,0.84-1.21,1.56c-0.61,0.81-0.85,1.01-1.12,0.38c-0.18-0.42,0.1-1.85,0.22-2.38c0.2-0.66,0.8-2.38,0.81-3.3
		c0.01-0.92-0.74-1.91-1.81-1.61c-0.93,0.27-1.3,1.96-1.74,1.41c-0.42-0.54,0.45-3.39-1.2-3.98c-2.56-0.9-3.66,1.78-3.65,2.85
		c0,0.98,0.21,1.29,0.05,1.84c-0.26,1.02-1.14,0.04-1.81,0.41c-0.66,0.37-0.67,1.11-0.51,2.08c0.16,0.97,0.66,2.09,2.28,3.66
		c1.62,1.57,1.39,1.79,1.02,2.07c-1.15,0.86-2.81-1.79-3.67,0.45c-1.22,3.18,4.11,4.82,4.54,5.03c1.14,0.55,1.77,1.79,0.21,1.43
		c-0.63-0.15-1.59-0.6-2.34,0.23c-1.99,2.21,3.19,6.07,6.62,6.78c3.44,0.71,6.51,2.02,7.81,2.62c1.28,0.58,6.74,4.33,7.12,5.85
		c0.1,0.45,0.33,0.78,0.86,0.78c0.53,0,0.75-0.29,0.85-0.75c0.35-1.48,5.83-5.29,7.12-5.87c1.3-0.59,4.37-1.9,7.81-2.62
		c3.44-0.71,8.61-4.57,6.63-6.78c-0.75-0.84-1.71-0.38-2.34-0.23C43.51,31.74,44.13,30.49,45.28,29.95 M25.31,45.74
		c0,0-0.04,0.31-0.28,0.3c-0.24-0.01-0.23-0.3-0.23-0.3s-0.18-10.68-0.18-18c0-7.31,0.18-15.28,0.18-15.28s0.06-0.3,0.27-0.3
		c0.2,0,0.24,0.3,0.24,0.3s0.18,7.97,0.18,15.28C25.48,35.06,25.31,45.74,25.31,45.74"/>
</g>
</svg>
