<?xml version="1.0" encoding="utf-8"?>
<!-- Generator: Adobe Illustrator 26.2.1, SVG Export Plug-In . SVG Version: 6.00 Build 0)  -->
<svg version="1.1" id="Capa_1" xmlns="http://www.w3.org/2000/svg" xmlns:xlink="http://www.w3.org/1999/xlink" x="0px" y="0px"
	 viewBox="0 0 50 35.23" style="enable-background:new 0 0 50 35.23;" xml:space="preserve">
<style type="text/css">
	.st0{fill:none;stroke:#0AAFF1;stroke-width:15;stroke-miterlimit:10;}
	.st1{fill:#0AAFF1;}
	.st2{fill:#FFFFFF;}
	.st3{fill:#FFFFFF;stroke:#E0E5EE;stroke-miterlimit:10;}
	.st4{fill:#606060;}
	.st5{fill:none;stroke:#0084F6;stroke-width:11;stroke-miterlimit:10;}
	.st6{fill:#00B346;}
	.st7{fill:#00A3C8;}
	.st8{fill:none;stroke:#00A3C8;stroke-miterlimit:10;}
	.st9{fill:none;stroke:#FFFFFF;stroke-width:4;stroke-miterlimit:10;}
	.st10{fill:#606060;stroke:#606060;stroke-width:5;stroke-miterlimit:10;}
	.st11{fill:none;stroke:#FFFFFF;stroke-width:10;stroke-miterlimit:10;}
	.st12{fill:#606060;stroke:#FFFFFF;stroke-width:10;stroke-miterlimit:10;}
	.st13{fill:#E70027;}
	.st14{fill:#FFFFFC;}
	.st15{fill:#FFFFFF;stroke:#606060;stroke-width:10;stroke-miterlimit:10;}
	.st16{fill:none;stroke:#000000;stroke-width:10;stroke-miterlimit:10;}
	.st17{fill:#F2F5FA;}
	.st18{fill:#FF8A5C;}
	.st19{fill:#F8F8F8;stroke:#E0E5EE;stroke-miterlimit:10;}
	.st20{fill:none;stroke:#C6C6C6;stroke-miterlimit:10;}
	.st21{fill:#FF5470;}
	.st22{fill:none;stroke:#FFFFFF;stroke-width:7;stroke-miterlimit:10;}
	.st23{fill:#FF7523;}
	.st24{fill:none;stroke:#FFFFFF;stroke-miterlimit:10;}
	.st25{fill:none;stroke:#0AAFF1;stroke-linecap:round;stroke-linejoin:round;stroke-miterlimit:10;}
	.st26{fill:#0AAFF1;stroke:#FFFFFF;stroke-linecap:round;stroke-linejoin:round;stroke-miterlimit:10;}
	.st27{opacity:0.25;fill:#1E93D1;}
	.st28{fill:#1E93D1;}
	.st29{fill:#1C5392;}
	.st30{fill:none;stroke:#FFFFFF;stroke-linecap:round;stroke-linejoin:round;stroke-miterlimit:10;}
	.st31{fill:none;stroke:#0AAFF1;stroke-width:2;stroke-linecap:round;stroke-linejoin:round;stroke-miterlimit:10;}
	.st32{fill:none;stroke:#0AAFF1;stroke-width:4;stroke-linecap:round;stroke-linejoin:round;stroke-miterlimit:10;}
	.st33{fill:none;stroke:#FFFFFF;stroke-width:5;stroke-miterlimit:10;}
	.st34{fill:none;stroke:#FFFFFF;stroke-width:5;stroke-linecap:round;stroke-linejoin:round;stroke-miterlimit:10;}
	.st35{fill:none;stroke:#0AAFF1;stroke-width:24;stroke-miterlimit:10;}
	.st36{fill:none;stroke:#F2F5FA;stroke-width:10;stroke-miterlimit:10;}
	.st37{fill:#B8D637;}
	.st38{fill:#1D1D1B;}
	.st39{fill:#88898B;}
	.st40{fill:#9F9FA1;}
	.st41{fill:#D2D2D3;}
	.st42{fill:#F7F7F7;}
	.st43{fill:none;stroke:#FFFFFF;stroke-width:4;stroke-linecap:round;stroke-linejoin:round;stroke-miterlimit:10;}
	.st44{fill:#0AAFF1;stroke:#FFFFFF;stroke-width:1.5;stroke-linecap:round;stroke-linejoin:round;stroke-miterlimit:10;}
	.st45{fill:#FFFFFF;stroke:#0AAFF1;stroke-width:1.5;stroke-linecap:round;stroke-linejoin:round;stroke-miterlimit:10;}
	.st46{fill:#FFFFFF;stroke:#0AAFF1;stroke-width:3;stroke-linecap:round;stroke-linejoin:round;stroke-miterlimit:10;}
	.st47{fill:none;stroke:#0AAFF1;stroke-width:3;stroke-linecap:round;stroke-linejoin:round;stroke-miterlimit:10;}
	.st48{fill:none;}
	.st49{fill:#FFFFFF;stroke:#0AAFF1;stroke-width:1.5;stroke-miterlimit:10;}
	.st50{fill:#0AAFF1;stroke:#FFFFFF;stroke-width:1.5;stroke-miterlimit:10;}
	.st51{fill:none;stroke:#0AAFF1;stroke-width:2;stroke-miterlimit:10;}
	.st52{fill:#FFFFFF;stroke:#0AAFF1;stroke-width:2;stroke-miterlimit:10;}
	.st53{fill:#0AAFF1;stroke:#FFFFFF;stroke-miterlimit:10;}
	.st54{fill:none;stroke:#0AAFF1;stroke-miterlimit:10;}
	.st55{fill:#FFFFFF;stroke:#0AAFF1;stroke-miterlimit:10;}
	.st56{fill:none;stroke:#FFFFFF;stroke-width:2;stroke-miterlimit:10;}
	.st57{fill:#0AAFF1;stroke:#0AAFF1;stroke-width:3;stroke-miterlimit:10;}
	.st58{fill:none;stroke:#0AAFF1;stroke-width:4;stroke-miterlimit:10;}
	.st59{fill:none;stroke:#0AAFF1;stroke-width:2.25;stroke-miterlimit:10;}
	.st60{fill:#1FB900;}
	.st61{fill:none;stroke:#0AAFF1;stroke-width:13;stroke-linecap:round;stroke-linejoin:round;stroke-miterlimit:10;}
	.st62{fill:none;stroke:#FFFFFF;stroke-width:1.5;stroke-linecap:round;stroke-linejoin:round;stroke-miterlimit:10;}
	.st63{fill:#F7FAF9;}
	.st64{fill:none;stroke:#FFFFFF;stroke-width:0.5;stroke-miterlimit:10;}
	.st65{fill:#FFFFFF;stroke:#0AAFF1;stroke-width:3;stroke-miterlimit:10;}
	.st66{fill:#606060;stroke:#0AAFF1;stroke-width:15;stroke-miterlimit:10;}
	.st67{fill:none;stroke:#FFFFFF;stroke-width:1.5;stroke-miterlimit:10;}
	.st68{fill:none;stroke:#0AAFF1;stroke-width:8;stroke-miterlimit:10;}
	.st69{fill:#FFFFFF;stroke:#0AAFF1;stroke-width:0.75;stroke-linecap:round;stroke-linejoin:round;stroke-miterlimit:10;}
	.st70{fill:none;stroke:#0AAFF1;stroke-width:10;stroke-linecap:round;stroke-linejoin:round;stroke-miterlimit:10;}
	.st71{fill:none;stroke:#E70027;stroke-width:10;stroke-linecap:round;stroke-linejoin:round;stroke-miterlimit:10;}
	.st72{opacity:0.5;fill:none;stroke:#E70027;stroke-width:10;stroke-miterlimit:10;}
	.st73{opacity:0.5;fill:#E70027;}
	.st74{fill:none;stroke:#FFFFFC;stroke-width:10;stroke-linecap:round;stroke-linejoin:round;stroke-miterlimit:10;}
	.st75{fill:none;stroke:#606060;stroke-width:15;stroke-linecap:round;stroke-linejoin:round;stroke-miterlimit:10;}
	.st76{fill:#606060;stroke:#FFFFFF;stroke-width:7;stroke-miterlimit:10;}
	.st77{fill:#0AAFF1;stroke:#0AAFF1;stroke-miterlimit:10;}
	.st78{fill:none;stroke:#606060;stroke-width:10;stroke-linecap:round;stroke-linejoin:round;stroke-miterlimit:10;}
	.st79{fill:none;stroke:#FFFFFF;stroke-width:7;stroke-miterlimit:10;stroke-dasharray:5.8286,5.8286;}
	.st80{fill:none;stroke:#000000;stroke-width:19;stroke-miterlimit:10;}
	.st81{fill:#0AAFF1;stroke:#FFFFFF;stroke-width:2;stroke-miterlimit:10;}
	.st82{fill:#45B8FF;}
	.st83{opacity:0.5;fill:none;stroke:#45B8FF;stroke-width:1.75;stroke-miterlimit:10;}
	.st84{fill:none;stroke:#000000;stroke-width:1.75;stroke-miterlimit:10;}
	.st85{fill:none;stroke:#000000;stroke-width:1.5;stroke-miterlimit:10;}
	.st86{fill:none;stroke:#0AAFF1;stroke-width:1.75;stroke-miterlimit:10;}
	.st87{fill:none;stroke:#0AAFF1;stroke-width:1.75;stroke-linecap:round;stroke-linejoin:round;stroke-miterlimit:10;}
	.st88{fill:#FFFFFC;stroke:#FFFFFC;stroke-width:3;stroke-miterlimit:10;}
	.st89{fill:none;stroke:#000000;stroke-width:2;stroke-miterlimit:10;}
	.st90{fill:none;stroke:#FFFFFF;stroke-width:2;stroke-linecap:round;stroke-linejoin:round;stroke-miterlimit:10;}
	.st91{fill:#00A3C8;stroke:#606060;stroke-width:5;stroke-miterlimit:10;}
	.st92{fill:#0084F6;}
	.st93{fill:#CDCDC9;}
	.st94{fill-rule:evenodd;clip-rule:evenodd;fill:#FFFFFF;}
	.st95{fill:none;stroke:#0AAFF1;stroke-width:5;stroke-miterlimit:10;}
	.st96{fill:none;stroke:#0AAFF1;stroke-width:5;stroke-linecap:round;stroke-linejoin:round;stroke-miterlimit:10;}
	.st97{fill:#FFFFFF;stroke:#0AAFF1;stroke-width:5;stroke-linecap:round;stroke-linejoin:round;stroke-miterlimit:10;}
	.st98{fill:none;stroke:#0AAFF1;stroke-width:3;stroke-miterlimit:10;}
	.st99{fill:#0AAFF1;stroke:#0AAFF1;stroke-width:6;stroke-linecap:round;stroke-linejoin:round;stroke-miterlimit:10;}
	.st100{fill:#00D06F;}
	.st101{fill:#0AAFF1;stroke:#0AAFF1;stroke-width:6;stroke-miterlimit:10;}
	.st102{fill:none;stroke:#0AAFF1;stroke-width:2.5;stroke-linecap:round;stroke-linejoin:round;stroke-miterlimit:10;}
	.st103{fill:#FFFF00;stroke:#000000;stroke-width:3;stroke-miterlimit:10;}
	.st104{fill:#53FC00;}
	.st105{fill:#80A51B;}
	.st106{fill:none;stroke:#80A51B;stroke-width:0.999;}
	.st107{fill:none;stroke:#000000;stroke-width:0.75;stroke-miterlimit:10;}
	.st108{opacity:0.4;}
	.st109{fill:#0078D4;}
	.st110{fill:#45D7FA;}
	.st111{fill:#189AE1;}
	.st112{fill:none;stroke:#606060;stroke-width:13;stroke-linecap:round;stroke-linejoin:round;stroke-miterlimit:10;}
	.st113{fill:none;stroke:#FFFFFF;stroke-width:7;stroke-linecap:round;stroke-linejoin:round;stroke-miterlimit:10;}
	.st114{fill:#FFFFFF;stroke:#FFFFFF;stroke-miterlimit:10;}
	.st115{fill:#DADADA;}
	.st116{fill:none;stroke:#20FF77;stroke-miterlimit:10;}
</style>
<g>
	<g>
		<path class="st2" d="M14.91,10.19l-0.09-0.63l0.6-0.22c0,0,0.26,0.09,0.71,0.19c0.44,0.1,1.07,0.22,1.84,0.27
			c1.43,0.1,3.29-0.02,5.2-0.81c3.25-1.36,6.89-2.43,10.4-2.19c0.84,0.06,1.68,0.19,2.5,0.42c3.95,1.14,6.31,4.62,10.55,4.88
			c0.86,0.06,1.8-0.01,2.86-0.25L50,12.05l0,0.57c-0.04,0.06-1.78,2.54-5.42,2.29c-0.49-0.03-1.01-0.11-1.56-0.26
			c-3.3-0.9-5.69-3.62-10.28-3.92c-1.69-0.11-3.69,0.09-6.15,0.84c-2.71,0.82-4.77,1.08-6.42,0.97
			C17.61,12.37,16.08,11.27,14.91,10.19"/>
		<path class="st2" d="M8.1,13.46c-5.43,0.26-8.07,4.46-8.1,4.5l0.05,0.6l0.59,0.13c2.39-1.07,4.47-1.33,6.22-1.21
			c0.75,0.05,1.41,0.18,2.03,0.34v-4.35C8.63,13.46,8.37,13.45,8.1,13.46"/>
		<path class="st2" d="M48.05,18.42L47.5,18.3c-1.35,0.53-2.37,0.71-3.4,0.64c-1.78-0.11-3.66-1.05-6.95-2.46
			c-2.01-0.86-3.72-1.26-5.24-1.37c-3.52-0.23-6.01,1.06-9.36,1.62c-0.58,0.1-1.15,0.12-1.73,0.08c-2.28-0.14-4.59-1.28-7.05-2.2
			v5.29c1.36,0.74,3.44,1.75,6.24,1.94l0.02,0c1.88,0.13,4.08-0.11,6.59-1.02c2.43-0.88,4.04-1.11,5.37-1.02
			c2.15,0.13,3.77,1.19,6.98,1.98c0.84,0.2,1.62,0.32,2.33,0.37c5.21,0.37,6.83-3.1,6.84-3.19L48.05,18.42"/>
		<path class="st2" d="M6.67,21.52c-3.55-0.24-5.67,1.57-5.72,1.61l-0.13,0.58l0.51,0.3c0.88-0.08,1.68-0.09,2.42-0.04
			c2.11,0.13,3.69,0.78,5.15,1.57v-3.59C8.11,21.72,7.36,21.56,6.67,21.52"/>
		<path class="st2" d="M24.73,25.69l-0.55-0.18c-1.66,0.51-3.02,0.68-4.31,0.59c-1.93-0.13-3.76-0.87-6.09-1.98v4.05
			c0.55,0.22,1.12,0.42,1.76,0.57c0.71,0.16,1.38,0.25,2.01,0.3h0.01c5.01,0.34,7.15-2.69,7.19-2.77L24.73,25.69"/>
		<path class="st2" d="M37.65,23.07v9.37c0,0.3-0.09,0.54-0.18,0.66l-0.1,0.1H12.64c-0.05-0.01-0.3-0.32-0.29-0.77V2.78
			c0-0.29,0.09-0.54,0.19-0.66l0.1-0.1v0h24.73l0,0c0.05,0,0.3,0.32,0.29,0.76v2.94l2.01,1.11V2.78c0-0.69-0.19-1.33-0.57-1.85
			C38.74,0.42,38.12,0,37.37,0H12.63c-0.75,0-1.36,0.42-1.72,0.93c-0.37,0.52-0.57,1.16-0.57,1.85v29.66c0,0.69,0.2,1.33,0.57,1.85
			c0.36,0.51,0.98,0.93,1.72,0.94h24.74c0.75,0,1.36-0.42,1.73-0.94c0.38-0.52,0.57-1.16,0.57-1.85v-8.98L37.65,23.07z"/>
	</g>
</g>
</svg>
