<?xml version="1.0" encoding="utf-8"?>
<!-- Generator: Adobe Illustrator 24.0.2, SVG Export Plug-In . SVG Version: 6.00 Build 0)  -->
<svg version="1.1" id="Capa_1" xmlns="http://www.w3.org/2000/svg" xmlns:xlink="http://www.w3.org/1999/xlink" x="0px" y="0px"
	 viewBox="0 0 675 100" style="enable-background:new 0 0 675 100;" xml:space="preserve">
<style type="text/css">
	.st0{fill:#D0D0D0;}
	.st1{fill:#AFCA0A;}
</style>
<g>
	<g>
		<path class="st1" d="M495.15,35.12v-8.51h-31.38v8.51h11.33v25.11c0,6.55,5.33,11.88,11.88,11.88h3.04v-8.51h-3.04
			c-1.86,0-3.37-1.51-3.37-3.37V35.12H495.15z"/>
		<g>
			<path class="st1" d="M638.5,26.65c1.1,0,2.12,0.18,3.06,0.54c0.94,0.36,1.75,0.87,2.44,1.54c0.69,0.67,1.23,1.48,1.62,2.43
				c0.39,0.95,0.58,2.02,0.58,3.2c0,1.18-0.19,2.25-0.58,3.2c-0.39,0.95-0.93,1.76-1.62,2.43c-0.69,0.67-1.5,1.18-2.44,1.54
				c-0.94,0.36-1.96,0.54-3.06,0.54s-2.12-0.18-3.07-0.54c-0.94-0.36-1.76-0.87-2.45-1.54c-0.69-0.67-1.23-1.48-1.62-2.43
				c-0.39-0.95-0.59-2.02-0.59-3.2c0-1.18,0.2-2.25,0.59-3.2c0.39-0.95,0.93-1.76,1.62-2.43c0.69-0.67,1.5-1.18,2.45-1.54
				C636.37,26.83,637.4,26.65,638.5,26.65z M638.5,41.01c0.88,0,1.71-0.13,2.49-0.4c0.78-0.27,1.46-0.68,2.03-1.23
				c0.58-0.55,1.03-1.24,1.37-2.08c0.34-0.83,0.51-1.82,0.51-2.95c0-1.13-0.17-2.11-0.51-2.95c-0.34-0.83-0.79-1.53-1.37-2.08
				c-0.58-0.55-1.25-0.96-2.03-1.23c-0.78-0.27-1.61-0.4-2.49-0.4c-0.89,0-1.72,0.13-2.5,0.4c-0.78,0.27-1.46,0.68-2.03,1.23
				c-0.58,0.55-1.03,1.24-1.37,2.08c-0.33,0.83-0.5,1.82-0.5,2.95c0,1.13,0.17,2.11,0.5,2.95c0.33,0.83,0.79,1.53,1.37,2.08
				c0.58,0.55,1.25,0.96,2.03,1.23C636.78,40.88,637.61,41.01,638.5,41.01z M635.41,30.24h3.28c0.44,0,0.86,0.05,1.24,0.15
				c0.39,0.1,0.73,0.25,1.01,0.46c0.29,0.21,0.51,0.47,0.68,0.79c0.17,0.32,0.25,0.7,0.25,1.14c0,0.25-0.05,0.48-0.14,0.69
				s-0.23,0.41-0.39,0.58c-0.17,0.17-0.36,0.32-0.58,0.46c-0.22,0.13-0.46,0.24-0.71,0.33l1.97,3.36h-1.37l-1.82-3.13h-2.08v3.13
				h-1.34V30.24z M636.76,31.32v2.67h2.42c0.15-0.02,0.3-0.06,0.46-0.11c0.16-0.05,0.31-0.12,0.45-0.21
				c0.14-0.09,0.25-0.21,0.34-0.35s0.13-0.32,0.13-0.53c0-0.53-0.18-0.9-0.53-1.12c-0.35-0.22-0.86-0.33-1.53-0.33H636.76z"/>
		</g>
		<path class="st1" d="M567.62,72.1h-8.51v-19.7c0-3.55-2.89-6.44-6.44-6.44c-3.55,0-6.44,2.89-6.44,6.44v19.7h-8.51v-19.7
			c0-8.25,6.71-14.95,14.95-14.95c8.25,0,14.96,6.71,14.96,14.95V72.1z"/>
		<path class="st1" d="M530.84,56.83h-27.17c0.39,2.4,1.44,4.3,3.14,5.72c1.7,1.41,3.88,2.12,6.52,2.12c3.16,0,5.88-1.1,8.15-3.32
			l7.13,3.35c-1.78,2.52-3.9,4.38-6.38,5.59c-2.48,1.21-5.42,1.81-8.83,1.81c-5.29,0-9.59-1.67-12.92-5
			c-3.33-3.33-4.99-7.51-4.99-12.53c0-5.14,1.66-9.41,4.97-12.81c3.31-3.4,7.47-5.1,12.47-5.1c5.31,0,9.63,1.7,12.95,5.1
			c3.32,3.4,4.99,7.89,4.99,13.46L530.84,56.83z M522.39,50.17c-0.56-1.88-1.66-3.41-3.31-4.59c-1.65-1.18-3.55-1.77-5.73-1.77
			c-2.36,0-4.43,0.66-6.21,1.98c-1.12,0.83-2.15,2.28-3.1,4.37H522.39z"/>
		<path class="st1" d="M585.76,38.85v-12.2h-8.51v12.2h-6.58l0,0v6.66v0h6.58v14.71c0,6.55,5.33,11.88,11.88,11.88h3.21v-8.51h-3.21
			c-1.86,0-3.37-1.51-3.37-3.37V45.51h6.58v0v-6.66l0,0H585.76z"/>
		<path class="st1" d="M613.05,36.62c-9.78,0-17.74,7.96-17.74,17.74c0,9.78,7.96,17.74,17.74,17.74c9.78,0,17.74-7.96,17.74-17.74
			C630.8,44.58,622.84,36.62,613.05,36.62z M612.64,60.07c-0.53-0.46-1.19-0.73-1.89-0.79l-7.92-0.62l15.76-15.54l0.08,22.13
			L612.64,60.07z"/>
	</g>
	<g>
		<path class="st0" d="M329.98,53.48c-1.47-1.74-3.53-2.99-6.18-3.73c0.57-0.39,1.16-0.89,1.78-1.48c0.61-0.59,1.18-1.29,1.69-2.09
			c0.52-0.8,0.94-1.71,1.28-2.75c0.34-1.03,0.51-2.18,0.51-3.45c0-1.8-0.37-3.43-1.1-4.9c-0.73-1.47-1.8-2.73-3.2-3.78
			c-1.4-1.05-3.11-1.86-5.11-2.43c-2.01-0.57-4.29-0.85-6.85-0.85h-15.35v44.72h17.69c2.63,0,5-0.3,7.1-0.9
			c2.1-0.6,3.9-1.46,5.37-2.56c1.48-1.11,2.61-2.44,3.4-3.99c0.79-1.56,1.18-3.28,1.18-5.16C332.18,57.43,331.45,55.22,329.98,53.48
			z M307.26,35.58h6.46c3.04,0,5.51,2.47,5.51,5.51s-2.47,5.51-5.51,5.51h-6.46V35.58z M316.84,65.17h-9.58V53.32h9.58
			c3.27,0,5.92,2.65,5.92,5.92C322.76,62.52,320.11,65.17,316.84,65.17z"/>
		<g>
			<polygon class="st0" points="38.61,64.05 38.61,27.99 28.8,27.99 28.8,64.05 28.8,72.76 56.16,72.76 56.16,65.52 56.16,64.05 			
				"/>
		</g>
		<path class="st0" d="M62.04,72.73V28.02h28.8v7.23H71.87v11.38h16.83v7.23H71.87V65.5h18.97v7.23H62.04z"/>
		<path class="st0" d="M97.95,72.73V28.02h28.8v7.23h-18.97v11.38h16.83v7.23h-16.83V65.5h18.97v7.23H97.95z"/>
		<path class="st0" d="M133.85,28.02h15.03c3.38,0,6.43,0.53,9.17,1.59c2.74,1.06,5.07,2.56,7,4.5c1.93,1.94,3.41,4.28,4.46,7.02
			c1.04,2.74,1.56,5.8,1.56,9.17c0,3.38-0.52,6.44-1.56,9.19c-1.04,2.75-2.53,5.11-4.46,7.07c-1.93,1.96-4.26,3.48-7,4.55
			c-2.74,1.07-5.8,1.61-9.17,1.61h-15.03V28.02z M143.68,35.18v30.38h4.47c1.93,0,3.69-0.3,5.28-0.89c1.59-0.59,2.94-1.51,4.06-2.76
			s1.98-2.83,2.6-4.75c0.61-1.92,0.92-4.2,0.92-6.86c0-2.65-0.31-4.93-0.92-6.84c-0.61-1.91-1.48-3.47-2.6-4.7
			c-1.12-1.23-2.47-2.13-4.06-2.71c-1.59-0.58-3.35-0.87-5.28-0.87H143.68z"/>
		<path class="st0" d="M220.92,63.4h-16.14l-3.02,9.34h-9.67l15.42-44.72h10.69l15.45,44.72h-9.67L220.92,63.4z M207.11,56.16h11.47
			l-5.75-17.62L207.11,56.16z"/>
		<path class="st0" d="M240.15,28.02h16.54c2.85,0,5.37,0.35,7.58,1.04c2.2,0.69,4.05,1.66,5.54,2.91c1.49,1.25,2.63,2.75,3.4,4.5
			c0.78,1.75,1.17,3.71,1.17,5.85c0,2.15-0.39,4.1-1.17,5.87c-0.78,1.77-1.91,3.28-3.4,4.55c-1.49,1.27-3.34,2.25-5.54,2.94
			c-2.2,0.69-4.73,1.04-7.58,1.04h-6.74v16.01h-9.8V28.02z M249.95,35.18v14.37h6.02c5.59,0,8.38-2.41,8.38-7.23
			c0-2.45-0.7-4.26-2.09-5.41c-1.39-1.15-3.49-1.73-6.3-1.73H249.95z"/>
		<path class="st0" d="M340.44,28.02h15.03c3.37,0,6.43,0.53,9.17,1.59c2.74,1.06,5.07,2.56,7,4.5c1.93,1.94,3.41,4.28,4.45,7.02
			c1.04,2.74,1.56,5.8,1.56,9.17c0,3.38-0.52,6.44-1.56,9.19c-1.04,2.75-2.53,5.11-4.45,7.07c-1.93,1.96-4.26,3.48-7,4.55
			c-2.74,1.07-5.8,1.61-9.17,1.61h-15.03V28.02z M350.27,35.18v30.38h4.47c1.93,0,3.69-0.3,5.28-0.89c1.59-0.59,2.94-1.51,4.06-2.76
			c1.12-1.25,1.98-2.83,2.6-4.75c0.61-1.92,0.92-4.2,0.92-6.86c0-2.65-0.31-4.93-0.92-6.84c-0.61-1.91-1.48-3.47-2.6-4.7
			c-1.12-1.23-2.47-2.13-4.06-2.71c-1.59-0.58-3.35-0.87-5.28-0.87H350.27z"/>
		<path class="st0" d="M395.11,54.65H384.2v-7.17h10.92V37.09h8.61v10.39h10.85v7.17h-10.85v10.46h-8.61V54.65z"/>
		<path class="st0" d="M420.86,50.31c0-3.46,0.51-6.61,1.55-9.44c1.03-2.83,2.5-5.24,4.41-7.25c1.91-2.01,4.22-3.55,6.95-4.64
			c2.73-1.09,5.79-1.63,9.19-1.63c2.24,0,4.13,0.18,5.67,0.53c1.54,0.35,2.88,0.76,3.99,1.22l-1.68,6.64
			c-1.03-0.37-2.19-0.67-3.47-0.89c-1.28-0.22-2.65-0.33-4.09-0.33c-1.91,0-3.63,0.31-5.16,0.92c-1.53,0.61-2.84,1.56-3.91,2.84
			c-1.07,1.28-1.9,2.92-2.48,4.9c-0.58,1.98-0.87,4.36-0.87,7.12c0,2.76,0.3,5.15,0.89,7.15c0.59,2.01,1.43,3.66,2.52,4.95
			c1.08,1.29,2.4,2.25,3.95,2.88c1.54,0.62,3.26,0.94,5.14,0.94c1.78,0,3.4-0.18,4.87-0.54c1.47-0.36,2.76-0.76,3.88-1.2l1.55,6.67
			c-1.27,0.64-2.83,1.17-4.67,1.59c-1.84,0.43-4.09,0.64-6.74,0.64c-3.29,0-6.25-0.55-8.89-1.66c-2.64-1.11-4.9-2.67-6.76-4.69
			c-1.86-2.02-3.3-4.44-4.31-7.28C421.36,56.92,420.86,53.77,420.86,50.31z"/>
	</g>
</g>
</svg>
